<svg width="315" height="33" viewBox="0 0 315 33" fill="none" xmlns="http://www.w3.org/2000/svg">
<g clip-path="url(#clip0_18_263)">
<path d="M13.6872 5.5C11.4612 5.5 9.32641 6.38737 7.7524 7.9669L2.6155 13.1218C1.04149 14.7014 0.157227 16.8436 0.157227 19.0774C0.157227 23.7291 3.91494 27.5 8.55033 27.5C10.7763 27.5 12.9111 26.6126 14.4851 25.0331L18.0383 21.4674C18.0383 21.4673 18.0384 21.4675 18.0383 21.4674L28.3912 11.0782C29.143 10.3238 30.1625 9.9 31.2257 9.9C33.0055 9.9 34.5145 11.0641 35.0376 12.675L38.305 9.39617C36.8144 7.05345 34.2008 5.5 31.2257 5.5C28.9997 5.5 26.8649 6.38737 25.2909 7.9669L11.3848 21.9218C10.633 22.6762 9.61345 23.1 8.55033 23.1C6.33649 23.1 4.54184 21.2991 4.54184 19.0774C4.54184 18.0106 4.96416 16.9874 5.7159 16.2331L10.8528 11.0782C11.6045 10.3238 12.6241 9.9 13.6872 9.9C15.4671 9.9 16.976 11.0642 17.4992 12.6751L20.7666 9.39625C19.276 7.05349 16.6625 5.5 13.6872 5.5Z" fill="#D4CDF1"/>
<path d="M28.9232 21.9218C28.1715 22.6762 27.1519 23.1 26.0888 23.1C24.3092 23.1 22.8003 21.9362 22.277 20.3256L19.0098 23.6043C20.5004 25.9467 23.1138 27.5 26.0888 27.5C28.3148 27.5 30.4496 26.6126 32.0236 25.0331L45.9297 11.0782C46.6814 10.3238 47.701 9.9 48.7641 9.9C50.978 9.9 52.7726 11.7009 52.7726 13.9226C52.7726 14.9894 52.3503 16.0126 51.5986 16.7669L46.4617 21.9218C45.71 22.6762 44.6904 23.1 43.6273 23.1C41.8475 23.1 40.3386 21.936 39.8154 20.3252L36.5481 23.604C38.0386 25.9467 40.6522 27.5 43.6273 27.5C45.8533 27.5 47.9881 26.6126 49.5621 25.0331L54.6989 19.8782C56.2729 18.2986 57.1572 16.1564 57.1572 13.9226C57.1572 9.2709 53.3995 5.5 48.7641 5.5C46.5381 5.5 44.4033 6.38737 42.8293 7.9669L28.9232 21.9218Z" fill="#D4CDF1"/>
</g>
<path d="M83.3569 25.905H102.541V7.095H83.3569V25.905ZM98.8482 14.6901H94.7946V10.7155H98.8482V14.6901ZM87.0486 10.7155H91.1044V18.3099H98.8482V22.2845H87.0486V10.7155ZM115.033 7.095C113.136 7.095 111.281 7.6466 109.704 8.68004C108.126 9.71347 106.897 11.1823 106.171 12.9009C105.445 14.6194 105.255 16.5104 105.625 18.3348C105.995 20.1592 106.909 21.835 108.25 23.1503C109.592 24.4657 111.301 25.3614 113.161 25.7243C115.022 26.0872 116.951 25.901 118.703 25.1891C120.456 24.4773 121.954 23.2718 123.008 21.7251C124.062 20.1785 124.625 18.3601 124.625 16.5C124.622 14.0065 123.61 11.616 121.812 9.85288C120.014 8.08973 117.576 7.09791 115.033 7.095ZM115.033 22.2845C113.866 22.2845 112.725 21.9453 111.755 21.3096C110.785 20.6741 110.029 19.7707 109.582 18.7136C109.136 17.6567 109.019 16.4936 109.247 15.3715C109.474 14.2494 110.036 13.2187 110.861 12.4097C111.686 11.6007 112.737 11.0498 113.882 10.8266C115.026 10.6034 116.212 10.718 117.29 11.1558C118.368 11.5936 119.29 12.335 119.938 13.2863C120.586 14.2375 120.932 15.3559 120.932 16.5C120.93 18.0335 120.307 19.5034 119.202 20.5877C118.096 21.6721 116.597 22.2822 115.033 22.2845ZM158.949 7.095C157.051 7.09486 155.197 7.64633 153.619 8.67968C152.042 9.71302 150.813 11.1818 150.086 12.9004C149.36 14.6189 149.17 16.51 149.54 18.3344C149.91 20.1588 150.824 21.8347 152.165 23.1501C153.507 24.4655 155.216 25.3613 157.077 25.7242C158.937 26.0872 160.865 25.901 162.619 25.1892C164.371 24.4773 165.869 23.2719 166.923 21.7252C167.977 20.1785 168.54 18.3602 168.54 16.5C168.537 14.0067 167.526 11.6163 165.728 9.85314C163.93 8.09001 161.491 7.09811 158.949 7.095ZM158.949 22.2845C157.782 22.2847 156.641 21.9455 155.671 21.31C154.701 20.6745 153.944 19.7711 153.498 18.7142C153.051 17.6572 152.934 16.4941 153.162 15.3719C153.389 14.2498 153.951 13.2191 154.776 12.41C155.601 11.6009 156.653 11.0499 157.797 10.8267C158.941 10.6034 160.127 10.7179 161.205 11.1557C162.283 11.5935 163.205 12.3349 163.853 13.2862C164.501 14.2375 164.847 15.3559 164.847 16.5C164.845 18.0333 164.223 19.5031 163.117 20.5875C162.011 21.6718 160.512 22.282 158.949 22.2845ZM136.99 7.095C135.093 7.095 133.239 7.6466 131.661 8.68004C130.084 9.71347 128.855 11.1823 128.129 12.9009C127.403 14.6194 127.213 16.5104 127.583 18.3348C127.953 20.1592 128.866 21.835 130.208 23.1503C131.549 24.4657 133.258 25.3614 135.119 25.7243C136.98 26.0872 138.908 25.901 140.661 25.1891C142.414 24.4773 143.912 23.2718 144.966 21.7251C146.02 20.1785 146.582 18.3601 146.582 16.5C146.579 14.0065 145.568 11.616 143.769 9.85288C141.971 8.08973 139.533 7.09791 136.99 7.095ZM136.99 22.2845C135.903 22.285 134.837 21.9911 133.91 21.435C132.982 20.8789 132.229 20.0824 131.735 19.1333C131.24 18.1842 131.022 17.1195 131.105 16.0568C131.189 14.994 131.57 13.9744 132.207 13.1106C132.844 12.2469 133.712 11.5724 134.715 11.1619C135.718 10.7513 136.817 10.6204 137.892 10.7838C138.966 10.9473 139.973 11.3985 140.802 12.0878C141.632 12.7772 142.25 13.6778 142.591 14.6901H136.99V18.3099H142.591C142.201 19.4651 141.45 20.4708 140.445 21.1842C139.44 21.8976 138.231 22.2826 136.99 22.2845Z" fill="#D4CDF1"/>
<path d="M222.061 11.7C222.39 11.7 222.5 11.8189 222.5 12.1389V19.38H226.221C226.541 19.38 226.66 19.4989 226.66 19.8189V20.4589C226.66 20.7789 226.541 20.8977 226.221 20.8977H221.321C221.001 20.8977 220.873 20.7789 220.873 20.4589V12.1389C220.873 11.8189 221.001 11.7 221.321 11.7H222.061Z" fill="#D4CDF1"/>
<path d="M229.906 14.8909C229.906 12.7789 231.241 11.508 233.563 11.508C235.885 11.508 237.22 12.7789 237.22 14.8909V17.7069C237.22 19.8189 235.876 21.0897 233.563 21.0897C231.25 21.0897 229.906 19.8189 229.906 17.7069V14.8909ZM235.684 14.8909C235.684 13.7023 234.943 13.0623 233.609 13.0623C232.274 13.0623 231.542 13.7114 231.542 14.8909V17.7251C231.542 18.9229 232.274 19.5537 233.609 19.5537C234.943 19.5537 235.684 18.8954 235.684 17.7251V14.8909Z" fill="#D4CDF1"/>
<path d="M248.109 15.86C248.466 15.86 248.548 15.9789 248.548 16.2989V18.036C248.558 18.4452 248.476 18.8514 248.308 19.2247C248.14 19.5981 247.891 19.9291 247.579 20.1937C246.803 20.8113 245.825 21.1177 244.836 21.0531C242.468 21.0531 241.179 19.7823 241.179 17.6703V14.836C241.179 12.7514 242.514 11.4714 244.836 11.4714C246.664 11.4714 247.853 12.1937 248.356 13.6383C248.384 13.6926 248.399 13.7527 248.4 13.8137C248.401 13.8749 248.387 13.9354 248.361 13.9904C248.334 14.0454 248.295 14.0935 248.247 14.1308C248.198 14.168 248.142 14.1935 248.082 14.2051L247.368 14.452C247.058 14.5617 246.93 14.4977 246.82 14.1777C246.668 13.7872 246.391 13.4583 246.032 13.243C245.672 13.0278 245.252 12.9384 244.836 12.9891C243.492 12.9891 242.76 13.6383 242.76 14.8177V17.7252C242.76 18.9229 243.501 19.5537 244.836 19.5537C246.171 19.5537 246.994 18.9412 246.994 18.0452V17.3686H245.01C244.68 17.3686 244.562 17.2406 244.562 16.9206V16.2989C244.562 15.9789 244.68 15.86 245.01 15.86H248.109Z" fill="#D4CDF1"/>
<path d="M252.324 14.8909C252.324 12.7789 253.659 11.508 255.981 11.508C258.304 11.508 259.639 12.7789 259.639 14.8909V17.7069C259.639 19.8189 258.295 21.0897 255.981 21.0897C253.668 21.0897 252.324 19.8189 252.324 17.7069V14.8909ZM258.093 14.8909C258.093 13.7023 257.353 13.0623 256.027 13.0623C254.701 13.0623 253.952 13.7114 253.952 14.8909V17.7251C253.952 18.9229 254.692 19.5537 256.027 19.5537C257.362 19.5537 258.093 18.8954 258.093 17.7251V14.8909Z" fill="#D4CDF1"/>
<path d="M263.945 11.9651C263.945 11.764 264.009 11.7 264.21 11.7H264.631C264.832 11.7 264.877 11.764 264.877 11.9651V20.6326C264.877 20.8337 264.877 20.8977 264.631 20.8977H264.21C264.009 20.8977 263.945 20.8337 263.945 20.6326V11.9651Z" fill="#D4CDF1"/>
<path d="M273.206 11.7C273.968 11.7 274.698 12.0024 275.236 12.5409C275.775 13.0792 276.077 13.8094 276.077 14.5709C276.077 15.3323 275.775 16.0625 275.236 16.6008C274.698 17.1393 273.968 17.4417 273.206 17.4417H270.463V20.6326C270.463 20.8337 270.418 20.8977 270.226 20.8977H269.796C269.604 20.8977 269.531 20.8337 269.531 20.6326V11.9651C269.531 11.764 269.604 11.7 269.796 11.7H273.206ZM273.124 16.5366C273.386 16.5366 273.645 16.485 273.887 16.3849C274.128 16.2847 274.348 16.1378 274.533 15.9528C274.718 15.7677 274.865 15.548 274.965 15.3062C275.065 15.0644 275.117 14.8052 275.117 14.5434C275.117 14.2817 275.065 14.0225 274.965 13.7806C274.865 13.5389 274.718 13.3191 274.533 13.1341C274.348 12.949 274.128 12.8022 273.887 12.702C273.645 12.6018 273.386 12.5503 273.124 12.5503H270.381V16.5366H273.124Z" fill="#D4CDF1"/>
<path d="M283.218 11.5171C283.923 11.4392 284.636 11.5911 285.248 11.9501C285.861 12.3093 286.342 12.8564 286.619 13.5103C286.692 13.6566 286.619 13.7754 286.472 13.8486L286.07 14.0314C285.906 14.0954 285.842 14.0863 285.741 13.9126C285.534 13.4273 285.178 13.0204 284.724 12.7509C284.27 12.4813 283.743 12.363 283.218 12.4131C281.672 12.4131 280.831 13.0257 280.831 14.1229C280.822 14.4581 280.935 14.7854 281.148 15.0442C281.362 15.3029 281.662 15.4758 281.992 15.5309C282.484 15.6912 282.994 15.7895 283.51 15.8234C284.135 15.8567 284.751 15.9831 285.339 16.1983C285.789 16.3408 286.177 16.6339 286.437 17.0285C286.696 17.4232 286.813 17.8951 286.765 18.3651C286.765 20.0749 285.522 21.108 283.236 21.108C282.486 21.1938 281.73 21.02 281.093 20.6157C280.455 20.2115 279.976 19.6011 279.734 18.8863C279.718 18.8537 279.709 18.818 279.709 18.7816C279.708 18.7452 279.715 18.7092 279.73 18.676C279.745 18.6428 279.767 18.6133 279.794 18.5896C279.822 18.5658 279.854 18.5485 279.89 18.5389L280.292 18.3926C280.323 18.3796 280.358 18.3734 280.392 18.3743C280.426 18.3752 280.46 18.3832 280.491 18.3979C280.522 18.4125 280.549 18.4333 280.572 18.4592C280.594 18.4851 280.611 18.5153 280.621 18.548C280.826 19.0645 281.189 19.5024 281.659 19.7984C282.129 20.0942 282.682 20.2328 283.236 20.1937C284.964 20.1937 285.814 19.5903 285.814 18.3651C285.831 18.0431 285.732 17.7258 285.536 17.4696C285.34 17.2135 285.059 17.0351 284.744 16.9663C284.271 16.8252 283.784 16.7393 283.291 16.7103L282.303 16.5823C281.994 16.5167 281.689 16.4343 281.389 16.3354C281.093 16.2459 280.816 16.1 280.575 15.9057C280.333 15.6861 280.142 15.4158 280.015 15.114C279.889 14.8122 279.83 14.4864 279.844 14.1594C279.908 12.5594 281.106 11.5171 283.218 11.5171Z" fill="#D4CDF1"/>
<path d="M291.693 17.7709C291.732 18.4174 292.016 19.0248 292.488 19.4689C292.959 19.9129 293.583 20.1602 294.23 20.1602C294.878 20.1602 295.501 19.9129 295.973 19.4689C296.445 19.0248 296.728 18.4174 296.767 17.7709V11.9651C296.767 11.764 296.831 11.7 297.033 11.7H297.453C297.654 11.7 297.718 11.764 297.718 11.9651V17.7617C297.718 19.8371 296.493 21.0897 294.235 21.0897C291.977 21.0897 290.751 19.8371 290.751 17.7617V11.9651C290.751 11.764 290.815 11.7 291.007 11.7H291.437C291.629 11.7 291.693 11.764 291.693 11.9651V17.7709Z" fill="#D4CDF1"/>
<path d="M310.335 11.7C310.536 11.7 310.6 11.764 310.6 11.9651V20.6326C310.6 20.8337 310.536 20.8977 310.335 20.8977H309.951C309.759 20.8977 309.695 20.8337 309.695 20.6326V15.3571C309.695 14.5896 309.747 13.8229 309.851 13.0623H309.796C309.511 13.7578 309.177 14.4329 308.799 15.0829L306.834 18.548C306.81 18.6082 306.768 18.6595 306.714 18.6955C306.66 18.7313 306.597 18.7501 306.532 18.7491H306.276C306.21 18.7495 306.146 18.7306 306.09 18.6949C306.035 18.6592 305.992 18.6082 305.965 18.548L303.972 15.0463C303.618 14.4056 303.313 13.7394 303.058 13.0531H303.003C303.096 13.8207 303.145 14.5931 303.149 15.3663V20.6326C303.149 20.8337 303.085 20.8977 302.884 20.8977H302.527C302.326 20.8977 302.262 20.8337 302.262 20.6326V11.9651C302.262 11.764 302.326 11.7 302.527 11.7H302.856C302.931 11.6931 303.007 11.7094 303.072 11.7471C303.138 11.7848 303.19 11.8418 303.222 11.9103L306.422 17.5971L309.604 11.9651C309.704 11.7731 309.759 11.7457 309.96 11.7457L310.335 11.7Z" fill="#D4CDF1"/>
<path d="M205.796 19.508V26.1183C205.796 26.3717 205.696 26.6147 205.516 26.7939C205.337 26.9731 205.094 27.0737 204.841 27.0737C204.587 27.0737 204.344 26.9731 204.165 26.7939C203.986 26.6147 203.885 26.3717 203.885 26.1183V19.5171C204.151 19.7114 204.47 19.8199 204.8 19.828C205.159 19.8382 205.51 19.7253 205.796 19.508ZM213.933 17.5971C213.691 17.5971 213.458 17.6935 213.287 17.8649C213.115 18.0364 213.019 18.269 213.019 18.5114V19.6634C213.019 19.9169 213.12 20.1599 213.299 20.339C213.478 20.5182 213.721 20.6189 213.974 20.6189C214.228 20.6189 214.471 20.5182 214.65 20.339C214.829 20.1599 214.93 19.9169 214.93 19.6634V18.5571C214.937 18.426 214.916 18.2949 214.868 18.1728C214.82 18.0506 214.746 17.9402 214.651 17.8491C214.557 17.7581 214.444 17.6884 214.32 17.6449C214.196 17.6014 214.064 17.5852 213.933 17.5971ZM201.81 22.0131C201.481 22.0033 201.162 21.895 200.896 21.7023V28.3309C200.896 28.5855 200.997 28.8297 201.177 29.0097C201.357 29.1897 201.601 29.2909 201.856 29.2909C202.11 29.2909 202.354 29.1897 202.534 29.0097C202.714 28.8297 202.816 28.5855 202.816 28.3309V21.748C202.517 21.941 202.165 22.0339 201.81 22.0131ZM210.953 15.6131C210.829 15.6069 210.705 15.626 210.589 15.6692C210.473 15.7123 210.366 15.7787 210.276 15.8642C210.187 15.9498 210.115 16.0526 210.066 16.1667C210.018 16.2807 209.993 16.4035 209.993 16.5274V21.62C209.993 21.8746 210.094 22.1188 210.274 22.2989C210.454 22.4789 210.698 22.58 210.953 22.58C211.207 22.58 211.452 22.4789 211.632 22.2989C211.812 22.1188 211.913 21.8746 211.913 21.62V16.5914C211.92 16.4595 211.899 16.3276 211.85 16.2047C211.801 16.0818 211.727 15.9709 211.631 15.8797C211.536 15.7884 211.421 15.7189 211.296 15.6761C211.171 15.6333 211.038 15.618 210.907 15.6314L210.953 15.6131ZM207.917 17.5697C207.573 17.5673 207.238 17.4588 206.957 17.2589V23.9057C206.957 24.1603 207.058 24.4046 207.238 24.5846C207.419 24.7646 207.663 24.8657 207.917 24.8657C208.172 24.8657 208.416 24.7646 208.596 24.5846C208.776 24.4046 208.877 24.1603 208.877 23.9057V17.268C208.587 17.484 208.233 17.5967 207.872 17.588L207.917 17.5697ZM199.734 22.6623V4.09314C199.732 3.86679 199.64 3.65055 199.48 3.49134C199.319 3.33214 199.101 3.24285 198.875 3.24286H198.674C198.448 3.24285 198.23 3.33214 198.069 3.49134C197.908 3.65055 197.817 3.86679 197.814 4.09314V22.6623C197.814 22.8902 197.905 23.1088 198.066 23.27C198.227 23.4312 198.446 23.5217 198.674 23.5217H198.875C199.103 23.5217 199.322 23.4312 199.483 23.27C199.644 23.1088 199.734 22.8902 199.734 22.6623ZM201.91 21.3091H201.709C201.481 21.3091 201.263 21.2186 201.102 21.0574C200.94 20.8963 200.85 20.6776 200.85 20.4497V6.30572C200.852 6.07938 200.944 5.86311 201.105 5.70391C201.266 5.54471 201.483 5.45542 201.709 5.45543H201.91C202.137 5.45542 202.354 5.54471 202.515 5.70391C202.676 5.86311 202.767 6.07938 202.77 6.30572V20.468C202.77 20.6959 202.679 20.9145 202.518 21.0757C202.357 21.2369 202.138 21.3274 201.91 21.3274V21.3091ZM204.937 19.1331H204.726C204.501 19.1331 204.285 19.0435 204.125 18.8841C203.966 18.7246 203.876 18.5084 203.876 18.2829V8.5C203.875 8.38757 203.896 8.27602 203.938 8.1718C203.98 8.06758 204.043 7.97277 204.122 7.89284C204.201 7.81292 204.295 7.74946 204.399 7.70616C204.503 7.66286 204.614 7.64056 204.726 7.64057H204.937C205.163 7.64299 205.379 7.73459 205.539 7.8955C205.698 8.05642 205.787 8.27364 205.787 8.5V18.2829C205.787 18.5084 205.697 18.7246 205.538 18.8841C205.379 19.0435 205.162 19.1331 204.937 19.1331ZM207.963 16.8931H207.771C207.545 16.8931 207.327 16.8039 207.166 16.6446C207.006 16.4855 206.914 16.2692 206.912 16.0429V10.7766C206.904 10.6592 206.921 10.5415 206.961 10.4308C207 10.3202 207.063 10.2188 207.143 10.1331C207.224 10.0473 207.321 9.97913 207.429 9.9325C207.537 9.88597 207.653 9.86201 207.771 9.86229H207.972C208.2 9.86229 208.419 9.9528 208.58 10.114C208.741 10.2752 208.832 10.4938 208.832 10.7217V16.0246C208.833 16.1382 208.811 16.2509 208.769 16.3563C208.726 16.4616 208.663 16.5574 208.583 16.6382C208.503 16.719 208.408 16.7831 208.303 16.8269C208.198 16.8707 208.086 16.8931 207.972 16.8931H207.963ZM210.998 14.9274H210.797C210.569 14.9274 210.351 14.8369 210.19 14.6757C210.028 14.5145 209.938 14.2959 209.938 14.068V12.7057C209.94 12.4793 210.032 12.2631 210.193 12.1039C210.354 11.9447 210.571 11.8554 210.797 11.8554H210.998C211.225 11.8554 211.442 11.9447 211.603 12.1039C211.764 12.2631 211.856 12.4793 211.858 12.7057V14.068C211.858 14.2944 211.769 14.5116 211.609 14.6725C211.45 14.8334 211.234 14.9251 211.008 14.9274H210.998Z" fill="#D4CDF1"/>
<defs>
<clipPath id="clip0_18_263">
<rect width="57" height="22" fill="white" transform="translate(0.157227 5.5)"/>
</clipPath>
</defs>
</svg>
