<svg width="32" height="33" viewBox="0 0 32 33" fill="none" xmlns="http://www.w3.org/2000/svg">
<path d="M16.0001 18.7271L9.46673 25.2605C9.22229 25.5049 8.91118 25.6271 8.5334 25.6271C8.15562 25.6271 7.84451 25.5049 7.60006 25.2605C7.35562 25.016 7.2334 24.7049 7.2334 24.3271C7.2334 23.9494 7.35562 23.6383 7.60006 23.3938L14.1334 16.8605L7.60006 10.3271C7.35562 10.0827 7.2334 9.77159 7.2334 9.39381C7.2334 9.01603 7.35562 8.70492 7.60006 8.46048C7.84451 8.21603 8.15562 8.09381 8.5334 8.09381C8.91118 8.09381 9.22229 8.21603 9.46673 8.46048L16.0001 14.9938L22.5334 8.46048C22.7778 8.21603 23.089 8.09381 23.4667 8.09381C23.8445 8.09381 24.1556 8.21603 24.4001 8.46048C24.6445 8.70492 24.7667 9.01603 24.7667 9.39381C24.7667 9.77159 24.6445 10.0827 24.4001 10.3271L17.8667 16.8605L24.4001 23.3938C24.6445 23.6383 24.7667 23.9494 24.7667 24.3271C24.7667 24.7049 24.6445 25.016 24.4001 25.2605C24.1556 25.5049 23.8445 25.6271 23.4667 25.6271C23.089 25.6271 22.7778 25.5049 22.5334 25.2605L16.0001 18.7271Z" fill="#191A1E"/>
</svg>
