<svg width="18" height="20" viewBox="0 0 18 20" fill="none" xmlns="http://www.w3.org/2000/svg">
<path d="M12.4205 19.0637V16.5668C12.4531 16.1519 12.3971 15.7349 12.2561 15.3434C12.1151 14.9518 11.8923 14.5948 11.6027 14.2961C14.3345 13.9916 17.2055 12.9563 17.2055 8.20606C17.2053 6.99139 16.738 5.8233 15.9005 4.94356C16.2971 3.88086 16.269 2.70622 15.8222 1.66366C15.8222 1.66366 14.7956 1.35916 12.4205 2.95126C10.4264 2.41084 8.32451 2.41084 6.33048 2.95126C3.95538 1.35916 2.92878 1.66366 2.92878 1.66366C2.48192 2.70622 2.45388 3.88086 2.85048 4.94356C2.00669 5.82983 1.53897 7.00847 1.54548 8.23216C1.54548 12.9476 4.41648 13.9829 7.14828 14.3222C6.86205 14.6179 6.6413 14.9707 6.5004 15.3574C6.3595 15.7441 6.3016 16.1562 6.33048 16.5668V19.0637" stroke="#FEFEFF" stroke-width="1.305" stroke-linecap="round" stroke-linejoin="round"/>
</svg>
