<svg width="97" height="130" viewBox="0 0 97 130" fill="none" xmlns="http://www.w3.org/2000/svg">
<mask id="mask0_40_27" style="mask-type:alpha" maskUnits="userSpaceOnUse" x="4" y="0" width="279" height="279">
<circle cx="143.5" cy="139.5" r="137.576" fill="#C4C4C4" stroke="#F8BB54" stroke-width="3.84828"/>
</mask>
<g mask="url(#mask0_40_27)">
<path d="M-67.1914 51.3742C-67.1914 51.3742 -10.1483 40.8074 4.5696 3.82414C18.6452 -31.6284 76.627 -41.1579 76.627 -41.1579" stroke="#EF5944" stroke-width="4.32558" stroke-miterlimit="10"/>
<path d="M-67.1914 69.1494C-67.1914 69.1494 2.79163 56.9536 20.8183 12.317C38.0054 -30.2952 109.075 -41.1579 109.075 -41.1579" stroke="#EF5944" stroke-width="4.32558" stroke-miterlimit="10"/>
<path d="M-67.1914 86.9746C-67.1914 86.9746 15.6819 73.0998 37.0176 20.9086C57.3656 -29.0112 141.523 -41.1579 141.523 -41.1579" stroke="#EF5944" stroke-width="4.32558" stroke-miterlimit="10"/>
<path d="M-67.1914 104.75C-67.1914 104.75 28.6216 89.2461 53.2663 29.4014C76.7257 -27.678 173.971 -41.1579 173.971 -41.1579" stroke="#EF5944" stroke-width="4.32558" stroke-miterlimit="10"/>
<path d="M-67.1914 122.526C-67.1914 122.526 41.5614 105.392 69.5151 37.9435C96.0858 -26.3448 206.37 -41.1579 206.37 -41.1579" stroke="#EF5944" stroke-width="4.32558" stroke-miterlimit="10"/>
<path d="M-67.1914 140.351C-67.1914 140.351 54.4516 121.588 85.7144 46.4855C115.495 -25.0612 238.818 -41.1579 238.818 -41.1579" stroke="#EF5944" stroke-width="4.32558" stroke-miterlimit="10"/>
<path d="M-67.1914 158.126C-67.1914 158.126 67.3913 137.684 101.963 55.0279C134.856 -23.728 271.266 -41.1579 271.266 -41.1579" stroke="#EF5944" stroke-width="4.32558" stroke-miterlimit="10"/>
<path d="M-67.1914 175.902C-67.1914 175.902 80.3312 153.831 118.162 63.5208C154.216 -22.3948 303.714 -41.1579 303.714 -41.1579" stroke="#EF5944" stroke-width="4.32558" stroke-miterlimit="10"/>
<path d="M-67.1914 193.727C-67.1914 193.727 93.2212 170.026 134.411 72.112C173.576 -21.1112 336.113 -41.1579 336.113 -41.1579" stroke="#EF5944" stroke-width="4.32558" stroke-miterlimit="10"/>
<path d="M-67.1914 211.501C-67.1914 211.501 106.161 186.173 150.611 80.6545C192.936 -19.778 368.561 -41.1579 368.561 -41.1579" stroke="#EF5944" stroke-width="4.32558" stroke-miterlimit="10"/>
<path d="M-67.1914 229.327C-67.1914 229.327 119.101 202.318 166.859 89.1965C212.296 -18.4448 401.008 -41.1579 401.008 -41.1579" stroke="#EF5944" stroke-width="4.32558" stroke-miterlimit="10"/>
<path d="M-67.1914 247.104C-67.1914 247.104 131.991 218.465 183.058 97.7389C231.656 -17.1608 433.456 -41.1579 433.456 -41.1579" stroke="#EF5944" stroke-width="4.32558" stroke-miterlimit="10"/>
<path d="M-67.1914 264.877C-67.1914 264.877 144.931 234.611 199.307 106.231C251.017 -15.8276 465.904 -41.1579 465.904 -41.1579" stroke="#EF5944" stroke-width="4.32558" stroke-miterlimit="10"/>
<path d="M-67.1914 282.702C-67.1914 282.702 157.871 250.758 215.556 114.823C270.377 -14.4944 498.303 -41.1579 498.303 -41.1579" stroke="#EF5944" stroke-width="4.32558" stroke-miterlimit="10"/>
<path d="M-67.1914 300.479C-67.1914 300.479 170.761 266.904 231.755 123.316C289.737 -13.2108 530.751 -41.1579 530.751 -41.1579" stroke="#EF5944" stroke-width="4.32558" stroke-miterlimit="10"/>
<path d="M-67.1914 318.257C-67.1914 318.257 183.701 283.05 248.004 131.858C309.097 -11.8776 563.199 -41.1579 563.199 -41.1579" stroke="#EF5944" stroke-width="4.32558" stroke-miterlimit="10"/>
<path d="M-67.1914 336.082C-67.1914 336.082 196.64 299.244 264.203 140.4C328.457 -10.5444 595.647 -41.1579 595.647 -41.1579" stroke="#EF5944" stroke-width="4.32558" stroke-miterlimit="10"/>
<path d="M-67.1914 353.855C-67.1914 353.855 209.531 315.343 280.452 148.942C347.818 -9.26077 628.047 -41.1579 628.047 -41.1579" stroke="#EF5944" stroke-width="4.32558" stroke-miterlimit="10"/>
</g>
</svg>
