<svg width="155" height="111" viewBox="0 0 155 111" fill="none" xmlns="http://www.w3.org/2000/svg">
<path d="M-195.191 7.90199C-195.191 7.90199 -47.6688 -14.1694 -9.83771 -104.479C26.2156 -190.395 175.714 -209.158 175.714 -209.158" stroke="#F59E0B" stroke-width="4.32558" stroke-miterlimit="10"/>
<path d="M-195.191 25.7273C-195.191 25.7273 -34.7788 2.02642 6.41106 -95.888C45.5761 -189.111 208.113 -209.158 208.113 -209.158" stroke="#F59E0B" stroke-width="4.32558" stroke-miterlimit="10"/>
<path d="M-195.191 43.5015C-195.191 43.5015 -21.8388 18.1727 22.6106 -87.3455C64.9361 -187.778 240.561 -209.158 240.561 -209.158" stroke="#F59E0B" stroke-width="4.32558" stroke-miterlimit="10"/>
<path d="M-195.191 61.3266C-195.191 61.3266 -8.89926 34.3185 38.8593 -78.8035C84.2964 -186.445 273.008 -209.158 273.008 -209.158" stroke="#F59E0B" stroke-width="4.32558" stroke-miterlimit="10"/>
<path d="M-195.191 79.1038C-195.191 79.1038 3.99113 50.4651 55.0585 -70.2611C103.656 -185.161 305.456 -209.158 305.456 -209.158" stroke="#F59E0B" stroke-width="4.32558" stroke-miterlimit="10"/>
<path d="M-195.191 96.8771C-195.191 96.8771 16.9307 66.6113 71.3072 -61.7686C123.017 -183.828 337.904 -209.158 337.904 -209.158" stroke="#F59E0B" stroke-width="4.32558" stroke-miterlimit="10"/>
<path d="M-195.191 114.702C-195.191 114.702 29.8706 82.7575 87.5559 -53.177C142.377 -182.494 370.303 -209.158 370.303 -209.158" stroke="#F59E0B" stroke-width="4.32558" stroke-miterlimit="10"/>
<path d="M-195.191 132.479C-195.191 132.479 42.7608 98.9038 103.755 -44.6842C161.737 -181.211 402.751 -209.158 402.751 -209.158" stroke="#F59E0B" stroke-width="4.32558" stroke-miterlimit="10"/>
<path d="M-195.191 150.257C-195.191 150.257 55.7007 115.05 120.004 -36.1421C181.097 -179.878 435.199 -209.158 435.199 -209.158" stroke="#F59E0B" stroke-width="4.32558" stroke-miterlimit="10"/>
<path d="M-195.191 168.082C-195.191 168.082 68.6403 131.244 136.203 -27.5997C200.457 -178.544 467.647 -209.158 467.647 -209.158" stroke="#F59E0B" stroke-width="4.32558" stroke-miterlimit="10"/>
<path d="M-195.191 185.855C-195.191 185.855 81.5306 147.343 152.452 -19.0576C219.818 -177.261 500.047 -209.158 500.047 -209.158" stroke="#F59E0B" stroke-width="4.32558" stroke-miterlimit="10"/>
</svg>
