<svg width="24" height="17" viewBox="0 0 24 17" fill="none" xmlns="http://www.w3.org/2000/svg">
<path d="M1.33334 16.5C0.95556 16.5 0.638671 16.372 0.382671 16.116C0.126671 15.86 -0.000884275 15.5436 4.61361e-06 15.1667C4.61361e-06 14.7889 0.128005 14.472 0.384005 14.216C0.640005 13.96 0.956449 13.8324 1.33334 13.8333H22.6667C23.0445 13.8333 23.3613 13.9613 23.6173 14.2173C23.8733 14.4733 24.0009 14.7898 24 15.1667C24 15.5444 23.872 15.8613 23.616 16.1173C23.36 16.3733 23.0436 16.5009 22.6667 16.5H1.33334ZM1.33334 9.83334C0.95556 9.83334 0.638671 9.70534 0.382671 9.44934C0.126671 9.19334 -0.000884275 8.87689 4.61361e-06 8.5C4.61361e-06 8.12223 0.128005 7.80534 0.384005 7.54934C0.640005 7.29334 0.956449 7.16578 1.33334 7.16667H22.6667C23.0445 7.16667 23.3613 7.29467 23.6173 7.55067C23.8733 7.80667 24.0009 8.12312 24 8.5C24 8.87778 23.872 9.19467 23.616 9.45067C23.36 9.70667 23.0436 9.83423 22.6667 9.83334H1.33334ZM1.33334 3.16667C0.95556 3.16667 0.638671 3.03867 0.382671 2.78267C0.126671 2.52667 -0.000884275 2.21023 4.61361e-06 1.83334C4.61361e-06 1.45556 0.128005 1.13867 0.384005 0.882672C0.640005 0.626672 0.956449 0.499116 1.33334 0.500005H22.6667C23.0445 0.500005 23.3613 0.628005 23.6173 0.884005C23.8733 1.14 24.0009 1.45645 24 1.83334C24 2.21112 23.872 2.528 23.616 2.784C23.36 3.04 23.0436 3.16756 22.6667 3.16667H1.33334Z" fill="#191A1E"/>
</svg>
