<svg width="32" height="36" viewBox="0 0 32 36" fill="none" xmlns="http://www.w3.org/2000/svg">
<g clip-path="url(#clip0_18_135)">
<path fill-rule="evenodd" clip-rule="evenodd" d="M16.8727 6.39813C16.8727 5.6102 16.6893 4.83308 16.3369 4.12833C16.0323 3.51914 15.8535 2.85489 15.811 2.17512L15.7091 0.545441L15.6073 2.17506C15.5647 2.85484 15.3859 3.51911 15.0813 4.12831C14.7289 4.83308 14.5455 5.61021 14.5455 6.39816V29.6018C14.5455 30.3897 14.7289 31.1669 15.0813 31.8717C15.3859 32.4809 15.5647 33.1451 15.6073 33.8249L15.7091 35.4545L15.811 33.8249C15.8535 33.1451 16.0323 32.4809 16.3369 31.8716C16.6893 31.1669 16.8727 30.3898 16.8727 29.6018V6.39813ZM10.5187 6.4556C10.8711 7.16036 11.0545 7.93751 11.0545 8.72544V27.2745C11.0545 28.0625 10.8711 28.8396 10.5187 29.5444C10.2141 30.1536 10.0353 30.8179 9.99273 31.4976L9.89091 33.1273L9.78909 31.4976C9.74655 30.8179 9.56771 30.1536 9.26313 29.5444C8.91069 28.8396 8.72727 28.0625 8.72727 27.2745V8.72544C8.72727 7.93751 8.91069 7.16036 9.26313 6.4556C9.56771 5.84641 9.74655 5.18215 9.78909 4.50237L9.89091 2.87272L9.99273 4.50237C10.0353 5.18215 10.2141 5.84641 10.5187 6.4556ZM8.14545 11.0527C8.14545 10.2647 7.96204 9.48762 7.6096 8.7829C7.30502 8.17366 7.12616 7.5094 7.08367 6.82963L6.98182 5.19998L6.87996 6.82963C6.83748 7.5094 6.65861 8.17366 6.35401 8.7829C6.00164 9.48762 5.81818 10.2647 5.81818 11.0527V24.9473C5.81818 25.7352 6.00164 26.5124 6.35401 27.2171C6.65861 27.8263 6.83748 28.4905 6.87996 29.1703L6.98182 30.8L7.08367 29.1703C7.12616 28.4905 7.30502 27.8263 7.6096 27.2171C7.96204 26.5124 8.14545 25.7352 8.14545 24.9473V11.0527ZM4.70053 13.4374C5.05291 14.1422 5.23636 14.9193 5.23636 15.7073V20.2927C5.23636 21.0806 5.05291 21.8578 4.70053 22.5625C4.39593 23.1718 4.21707 23.836 4.17458 24.5158L4.07273 26.1454L3.97087 24.5158C3.92839 23.836 3.74952 23.1718 3.44492 22.5625C3.09255 21.8578 2.90909 21.0806 2.90909 20.2927V15.7073C2.90909 14.9193 3.09255 14.1422 3.44492 13.4374C3.74952 12.8282 3.92839 12.1639 3.97087 11.4842L4.07273 9.85453L4.17458 11.4842C4.21707 12.1639 4.39593 12.8282 4.70053 13.4374ZM2.32716 18L2.32727 18.0345V17.9654L2.32716 18ZM0 18.0345L0.000117398 18C0.00539582 18.7761 0.188601 19.5409 0.535833 20.2353C0.840429 20.8445 1.01929 21.5087 1.06178 22.1885L1.16364 23.8182L1.26549 22.1885C1.30798 21.5087 1.48684 20.8445 1.79144 20.2353C2.13867 19.5409 2.32188 18.7761 2.32716 18C2.32188 17.2238 2.13867 16.4591 1.79144 15.7647C1.48684 15.1555 1.30798 14.4913 1.26549 13.8115L1.16364 12.1818L1.06178 13.8115C1.01929 14.4913 0.840429 15.1555 0.535833 15.7647C0.188601 16.4591 0.00539583 17.2238 0.000117398 18L0 17.9654V18.0345ZM13.4278 4.12832C13.7802 4.83308 13.9636 5.6102 13.9636 6.39815V29.6018C13.9636 30.3898 13.7802 31.1669 13.4278 31.8716C13.1232 32.4809 12.9444 33.1451 12.9018 33.8249L12.8 35.4545L12.6982 33.8249C12.6556 33.1451 12.4768 32.4809 12.1722 31.8716C11.8198 31.1669 11.6364 30.3898 11.6364 29.6018V6.39815C11.6364 5.6102 11.8198 4.83308 12.1722 4.12832C12.4768 3.51913 12.6556 2.85486 12.6982 2.17509L12.8 0.545441L12.9018 2.17509C12.9444 2.85486 13.1232 3.51913 13.4278 4.12832ZM19.246 4.12832C19.5984 4.83308 19.7818 5.6102 19.7818 6.39815V29.6018C19.7818 30.3898 19.5984 31.1669 19.246 31.8716C18.9414 32.4809 18.7625 33.1451 18.72 33.8249L18.6182 35.4545L18.5164 33.8249C18.4738 33.1451 18.295 32.4809 17.9904 31.8716C17.638 31.1669 17.4545 30.3898 17.4545 29.6018V6.39815C17.4545 5.6102 17.638 4.83308 17.9904 4.12832C18.295 3.51913 18.4738 2.85486 18.5164 2.17509L18.6182 0.545441L18.72 2.17509C18.7625 2.85486 18.9414 3.51913 19.246 4.12832ZM22.6909 8.72544C22.6909 7.93751 22.5075 7.16036 22.1551 6.4556C21.8505 5.84641 21.6716 5.18215 21.6291 4.50237L21.5273 2.87272L21.4255 4.50237C21.3829 5.18215 21.2041 5.84641 20.8995 6.4556C20.5471 7.16036 20.3636 7.93751 20.3636 8.72544V27.2745C20.3636 28.0625 20.5471 28.8396 20.8995 29.5444C21.2041 30.1536 21.3829 30.8179 21.4255 31.4976L21.5273 33.1273L21.6291 31.4976C21.6716 30.8179 21.8505 30.1536 22.1551 29.5444C22.5075 28.8396 22.6909 28.0625 22.6909 27.2745V8.72544ZM25.0641 8.7829C25.4166 9.48762 25.6 10.2647 25.6 11.0527V24.9473C25.6 25.7352 25.4166 26.5124 25.0641 27.2171C24.7596 27.8263 24.5807 28.4905 24.5382 29.1703L24.4364 30.8L24.3345 29.1703C24.292 28.4905 24.1132 27.8263 23.8086 27.2171C23.4562 26.5124 23.2727 25.7352 23.2727 24.9473V11.0527C23.2727 10.2647 23.4562 9.48762 23.8086 8.7829C24.1132 8.17366 24.292 7.5094 24.3345 6.82963L24.4364 5.19998L24.5382 6.82963C24.5807 7.5094 24.7596 8.17366 25.0641 8.7829ZM28.5091 15.7073C28.5091 14.9193 28.3257 14.1422 27.9732 13.4374C27.6687 12.8282 27.4898 12.1639 27.4473 11.4842L27.3455 9.85453L27.2436 11.4842C27.2011 12.1639 27.0223 12.8282 26.7177 13.4374C26.3653 14.1422 26.1818 14.9193 26.1818 15.7073V20.2927C26.1818 21.0806 26.3653 21.8578 26.7177 22.5625C27.0223 23.1718 27.2011 23.836 27.2436 24.5158L27.3455 26.1454L27.4473 24.5158C27.4898 23.836 27.6687 23.1718 27.9732 22.5625C28.3257 21.8578 28.5091 21.0806 28.5091 20.2927V15.7073ZM31.418 18C31.4181 18.0115 31.4182 18.023 31.4182 18.0345V17.9654C31.4182 17.977 31.4181 17.9885 31.418 18ZM29.0911 18C29.0963 18.7761 29.2795 19.5409 29.6268 20.2353C29.9313 20.8445 30.1102 21.5087 30.1527 22.1885L30.2545 23.8182L30.3564 22.1885C30.3989 21.5087 30.5777 20.8445 30.8823 20.2353C31.2296 19.5409 31.4128 18.7761 31.418 18C31.4128 17.2238 31.2296 16.4591 30.8823 15.7647C30.5777 15.1555 30.3989 14.4913 30.3564 13.8115L30.2545 12.1818L30.1527 13.8115C30.1102 14.4913 29.9313 15.1555 29.6268 15.7647C29.2795 16.4591 29.0963 17.2238 29.0911 18ZM29.0911 18C29.091 17.9885 29.0909 17.977 29.0909 17.9654V18.0345C29.0909 18.023 29.091 18.0115 29.0911 18Z" fill="#191A1E"/>
</g>
<defs>
<clipPath id="clip0_18_135">
<rect width="32" height="35.7209" fill="white" transform="translate(0 0.139526)"/>
</clipPath>
</defs>
</svg>
