<svg width="1440" height="1024" viewBox="0 0 1440 1024" fill="none" xmlns="http://www.w3.org/2000/svg">
<g clip-path="url(#clip0_29_5)">
<path d="M106.25 1028.91C107.708 1028.91 108.89 1027.73 108.89 1026.27C108.89 1024.81 107.708 1023.63 106.25 1023.63C104.792 1023.63 103.61 1024.81 103.61 1026.27C103.61 1027.73 104.792 1028.91 106.25 1028.91Z" fill="#A855F7"/>
<path d="M82.3099 1028.91C83.768 1028.91 84.9499 1027.73 84.9499 1026.27C84.9499 1024.81 83.768 1023.63 82.3099 1023.63C80.8519 1023.63 79.6699 1024.81 79.6699 1026.27C79.6699 1027.73 80.8519 1028.91 82.3099 1028.91Z" fill="#A855F7"/>
<path d="M58.3798 1028.91C58.9043 1028.91 59.4176 1028.76 59.8547 1028.47C60.2918 1028.18 60.6331 1027.77 60.8352 1027.28C61.0373 1026.8 61.0912 1026.26 60.9901 1025.75C60.889 1025.23 60.6374 1024.76 60.2672 1024.39C59.897 1024.02 59.4248 1023.76 58.9105 1023.66C58.3962 1023.56 57.8629 1023.61 57.3781 1023.81C56.8932 1024.01 56.4788 1024.35 56.1871 1024.79C55.8955 1025.22 55.7397 1025.74 55.7397 1026.26C55.7397 1026.96 56.0176 1027.63 56.5125 1028.13C57.0073 1028.63 57.6787 1028.91 58.3798 1028.91Z" fill="#A855F7"/>
<path d="M34.4498 1028.91C34.9739 1028.91 35.4863 1028.75 35.9221 1028.46C36.3579 1028.17 36.6975 1027.76 36.8981 1027.27C37.0986 1026.79 37.1511 1026.26 37.0488 1025.74C36.9466 1025.23 36.6942 1024.76 36.3236 1024.39C35.953 1024.02 35.4808 1023.76 34.9668 1023.66C34.4527 1023.56 33.9199 1023.61 33.4357 1023.81C32.9514 1024.01 32.5376 1024.35 32.2465 1024.79C31.9553 1025.22 31.7998 1025.74 31.7998 1026.26C31.7998 1026.61 31.8683 1026.95 32.0015 1027.27C32.1346 1027.6 32.3299 1027.89 32.5759 1028.13C32.822 1028.38 33.1142 1028.58 33.4357 1028.71C33.7572 1028.84 34.1018 1028.91 34.4498 1028.91Z" fill="#A855F7"/>
<path d="M10.5101 1028.91C11.9681 1028.91 13.1501 1027.73 13.1501 1026.27C13.1501 1024.81 11.9681 1023.63 10.5101 1023.63C9.05208 1023.63 7.87012 1024.81 7.87012 1026.27C7.87012 1027.73 9.05208 1028.91 10.5101 1028.91Z" fill="#A855F7"/>
<path d="M106.25 1007.5C107.708 1007.5 108.89 1006.32 108.89 1004.86C108.89 1003.4 107.708 1002.22 106.25 1002.22C104.792 1002.22 103.61 1003.4 103.61 1004.86C103.61 1006.32 104.792 1007.5 106.25 1007.5Z" fill="#A855F7"/>
<path d="M82.3099 1007.5C83.768 1007.5 84.9499 1006.32 84.9499 1004.86C84.9499 1003.4 83.768 1002.22 82.3099 1002.22C80.8519 1002.22 79.6699 1003.4 79.6699 1004.86C79.6699 1006.32 80.8519 1007.5 82.3099 1007.5Z" fill="#A855F7"/>
<path d="M58.3798 1007.5C58.9047 1007.5 59.4185 1007.35 59.8559 1007.06C60.2932 1006.77 60.6344 1006.35 60.8362 1005.87C61.038 1005.38 61.0913 1004.85 60.9894 1004.34C60.8875 1003.82 60.6349 1003.35 60.2637 1002.98C59.8925 1002.6 59.4193 1002.35 58.9043 1002.25C58.3893 1002.15 57.8557 1002.2 57.3711 1002.4C56.8865 1002.61 56.4727 1002.95 56.1823 1003.38C55.8918 1003.82 55.7378 1004.34 55.7398 1004.86C55.7424 1005.56 56.0215 1006.23 56.516 1006.72C57.0105 1007.22 57.6804 1007.5 58.3798 1007.5Z" fill="#A855F7"/>
<path d="M34.4498 1007.5C34.9744 1007.5 35.4871 1007.34 35.9231 1007.05C36.3591 1006.76 36.6988 1006.35 36.8991 1005.86C37.0993 1005.38 37.1512 1004.84 37.0481 1004.33C36.9451 1003.82 36.6917 1003.34 36.3201 1002.97C35.9485 1002.6 35.4753 1002.35 34.9606 1002.25C34.4459 1002.15 33.9128 1002.2 33.4287 1002.4C32.9447 1002.61 32.5316 1002.95 32.2416 1003.39C31.9516 1003.82 31.7978 1004.34 31.7998 1004.86C31.7998 1005.21 31.8684 1005.55 32.0017 1005.87C32.135 1006.19 32.3304 1006.49 32.5766 1006.73C32.8228 1006.98 33.115 1007.17 33.4364 1007.3C33.7579 1007.43 34.1023 1007.5 34.4498 1007.5Z" fill="#A855F7"/>
<path d="M10.5101 1007.5C11.9681 1007.5 13.1501 1006.32 13.1501 1004.86C13.1501 1003.4 11.9681 1002.22 10.5101 1002.22C9.05208 1002.22 7.87012 1003.4 7.87012 1004.86C7.87012 1006.32 9.05208 1007.5 10.5101 1007.5Z" fill="#A855F7"/>
<path d="M106.25 986.09C107.708 986.09 108.89 984.908 108.89 983.45C108.89 981.992 107.708 980.81 106.25 980.81C104.792 980.81 103.61 981.992 103.61 983.45C103.61 984.908 104.792 986.09 106.25 986.09Z" fill="#A855F7"/>
<path d="M82.3099 986.09C83.768 986.09 84.9499 984.908 84.9499 983.45C84.9499 981.992 83.768 980.81 82.3099 980.81C80.8519 980.81 79.6699 981.992 79.6699 983.45C79.6699 984.908 80.8519 986.09 82.3099 986.09Z" fill="#A855F7"/>
<path d="M58.3798 986.1C58.9043 986.102 59.4176 985.948 59.8547 985.658C60.2918 985.368 60.6331 984.955 60.8352 984.471C61.0373 983.987 61.0912 983.454 60.9901 982.939C60.889 982.424 60.6374 981.951 60.2672 981.58C59.897 981.208 59.4248 980.955 58.9105 980.852C58.3962 980.749 57.8629 980.801 57.3781 981.001C56.8932 981.201 56.4788 981.541 56.1871 981.977C55.8955 982.413 55.7397 982.925 55.7397 983.45C55.7397 984.151 56.0176 984.824 56.5125 985.32C57.0073 985.817 57.6787 986.097 58.3798 986.1Z" fill="#A855F7"/>
<path d="M34.4498 986.1C34.9739 986.1 35.4863 985.945 35.9221 985.653C36.3579 985.362 36.6975 984.948 36.8981 984.464C37.0986 983.98 37.1511 983.447 37.0488 982.933C36.9466 982.419 36.6942 981.947 36.3236 981.576C35.953 981.206 35.4808 980.953 34.9668 980.851C34.4527 980.749 33.9199 980.801 33.4357 981.002C32.9514 981.202 32.5376 981.542 32.2465 981.978C31.9553 982.414 31.7998 982.926 31.7998 983.45C31.7998 983.798 31.8683 984.143 32.0015 984.464C32.1346 984.786 32.3299 985.078 32.5759 985.324C32.822 985.57 33.1142 985.765 33.4357 985.898C33.7572 986.031 34.1018 986.1 34.4498 986.1Z" fill="#A855F7"/>
<path d="M10.5101 986.09C11.9681 986.09 13.1501 984.908 13.1501 983.45C13.1501 981.992 11.9681 980.81 10.5101 980.81C9.05208 980.81 7.87012 981.992 7.87012 983.45C7.87012 984.908 9.05208 986.09 10.5101 986.09Z" fill="#A855F7"/>
<path d="M106.25 964.69C107.708 964.69 108.89 963.508 108.89 962.05C108.89 960.592 107.708 959.41 106.25 959.41C104.792 959.41 103.61 960.592 103.61 962.05C103.61 963.508 104.792 964.69 106.25 964.69Z" fill="#A855F7"/>
<path d="M82.3099 964.69C83.768 964.69 84.9499 963.508 84.9499 962.05C84.9499 960.592 83.768 959.41 82.3099 959.41C80.8519 959.41 79.6699 960.592 79.6699 962.05C79.6699 963.508 80.8519 964.69 82.3099 964.69Z" fill="#A855F7"/>
<path d="M58.3798 964.66C58.9047 964.662 59.4185 964.508 59.8559 964.218C60.2932 963.927 60.6344 963.513 60.8362 963.029C61.038 962.544 61.0913 962.01 60.9894 961.495C60.8875 960.98 60.6349 960.507 60.2637 960.136C59.8925 959.765 59.4193 959.512 58.9043 959.41C58.3893 959.309 57.8557 959.362 57.3711 959.564C56.8865 959.765 56.4727 960.107 56.1823 960.544C55.8918 960.981 55.7378 961.495 55.7398 962.02C55.7424 962.719 56.0215 963.389 56.516 963.884C57.0105 964.378 57.6804 964.657 58.3798 964.66Z" fill="#A855F7"/>
<path d="M34.4498 964.66C34.9744 964.66 35.4871 964.504 35.9231 964.213C36.3591 963.921 36.6988 963.507 36.8991 963.022C37.0993 962.537 37.1512 962.004 37.0481 961.489C36.9451 960.975 36.6917 960.503 36.3201 960.133C35.9485 959.762 35.4753 959.511 34.9606 959.41C34.4459 959.309 33.9128 959.363 33.4287 959.565C32.9447 959.767 32.5316 960.108 32.2416 960.545C31.9516 960.982 31.7978 961.495 31.7998 962.02C31.7998 962.368 31.8684 962.712 32.0017 963.033C32.135 963.354 32.3304 963.645 32.5766 963.89C32.8228 964.136 33.115 964.33 33.4364 964.462C33.7579 964.594 34.1023 964.661 34.4498 964.66Z" fill="#A855F7"/>
<path d="M10.5101 964.69C11.9681 964.69 13.1501 963.508 13.1501 962.05C13.1501 960.592 11.9681 959.41 10.5101 959.41C9.05208 959.41 7.87012 960.592 7.87012 962.05C7.87012 963.508 9.05208 964.69 10.5101 964.69Z" fill="#A855F7"/>
<path d="M106.25 943.28C107.708 943.28 108.89 942.098 108.89 940.64C108.89 939.182 107.708 938 106.25 938C104.792 938 103.61 939.182 103.61 940.64C103.61 942.098 104.792 943.28 106.25 943.28Z" fill="#A855F7"/>
<path d="M82.3099 943.28C83.768 943.28 84.9499 942.098 84.9499 940.64C84.9499 939.182 83.768 938 82.3099 938C80.8519 938 79.6699 939.182 79.6699 940.64C79.6699 942.098 80.8519 943.28 82.3099 943.28Z" fill="#A855F7"/>
<path d="M58.3798 943.29C58.9043 943.292 59.4176 943.138 59.8547 942.848C60.2918 942.558 60.6331 942.145 60.8352 941.661C61.0373 941.177 61.0912 940.644 60.9901 940.129C60.889 939.614 60.6374 939.141 60.2672 938.77C59.897 938.398 59.4248 938.145 58.9105 938.042C58.3962 937.939 57.8629 937.991 57.3781 938.191C56.8932 938.391 56.4788 938.731 56.1871 939.167C55.8955 939.603 55.7397 940.115 55.7397 940.64C55.7397 941.341 56.0176 942.014 56.5125 942.51C57.0073 943.007 57.6787 943.287 58.3798 943.29Z" fill="#A855F7"/>
<path d="M34.4498 943.29C34.9739 943.29 35.4863 943.135 35.9221 942.843C36.3579 942.552 36.6975 942.138 36.8981 941.654C37.0986 941.17 37.1511 940.637 37.0488 940.123C36.9466 939.609 36.6942 939.137 36.3236 938.766C35.953 938.396 35.4808 938.143 34.9668 938.041C34.4527 937.939 33.9199 937.991 33.4357 938.192C32.9514 938.392 32.5376 938.732 32.2465 939.168C31.9553 939.604 31.7998 940.116 31.7998 940.64C31.7998 940.988 31.8683 941.333 32.0015 941.654C32.1346 941.976 32.3299 942.268 32.5759 942.514C32.822 942.76 33.1142 942.955 33.4357 943.088C33.7572 943.221 34.1018 943.29 34.4498 943.29Z" fill="#A855F7"/>
<path d="M10.5101 943.28C11.9681 943.28 13.1501 942.098 13.1501 940.64C13.1501 939.182 11.9681 938 10.5101 938C9.05208 938 7.87012 939.182 7.87012 940.64C7.87012 942.098 9.05208 943.28 10.5101 943.28Z" fill="#A855F7"/>
</g>
<g clip-path="url(#clip1_29_5)">
<path d="M1435.38 71.91C1435.9 71.912 1436.42 71.7583 1436.85 71.4683C1437.29 71.1783 1437.63 70.7651 1437.84 70.2811C1438.04 69.797 1438.09 69.2639 1437.99 68.7492C1437.89 68.2345 1437.64 67.7614 1437.27 67.3898C1436.9 67.0181 1436.42 66.7647 1435.91 66.6617C1435.4 66.5586 1434.86 66.6105 1434.38 66.8108C1433.89 67.0111 1433.48 67.3507 1433.19 67.7867C1432.9 68.2227 1432.74 68.7355 1432.74 69.26C1432.74 69.9611 1433.02 70.6336 1433.51 71.1303C1434.01 71.627 1434.68 71.9074 1435.38 71.91Z" fill="#2AD168"/>
<path d="M1411.45 71.91C1411.97 71.91 1412.49 71.7546 1412.92 71.4634C1413.36 71.1722 1413.7 70.7584 1413.9 70.2742C1414.1 69.7899 1414.15 69.2571 1414.05 68.743C1413.95 68.229 1413.69 67.7568 1413.32 67.3862C1412.95 67.0156 1412.48 66.7632 1411.97 66.6609C1411.45 66.5587 1410.92 66.6112 1410.44 66.8117C1409.95 67.0123 1409.54 67.352 1409.25 67.7878C1408.96 68.2236 1408.8 68.7359 1408.8 69.26C1408.8 69.608 1408.87 69.9526 1409 70.2742C1409.13 70.5957 1409.33 70.8878 1409.58 71.1338C1409.82 71.3799 1410.11 71.5752 1410.44 71.7084C1410.76 71.8415 1411.1 71.91 1411.45 71.91Z" fill="#2AD168"/>
<path d="M1387.51 71.91C1388.97 71.91 1390.15 70.728 1390.15 69.27C1390.15 67.812 1388.97 66.63 1387.51 66.63C1386.05 66.63 1384.87 67.812 1384.87 69.27C1384.87 70.728 1386.05 71.91 1387.51 71.91Z" fill="#2AD168"/>
<path d="M1364.59 71.5955C1365.94 71.0411 1366.58 69.4984 1366.03 68.1499C1365.47 66.8014 1363.93 66.1578 1362.58 66.7122C1361.23 67.2666 1360.59 68.8092 1361.14 70.1577C1361.7 71.5062 1363.24 72.15 1364.59 71.5955Z" fill="#2AD168"/>
<path d="M1339.65 66.66C1339.13 66.658 1338.61 66.812 1338.17 67.1025C1337.74 67.3929 1337.4 67.8067 1337.19 68.2913C1336.99 68.7759 1336.94 69.3096 1337.04 69.8246C1337.14 70.3396 1337.4 70.8126 1337.77 71.1838C1338.14 71.555 1338.61 71.8076 1339.13 71.9095C1339.64 72.0115 1340.17 71.9581 1340.66 71.7563C1341.14 71.5545 1341.56 71.2134 1341.85 70.7761C1342.14 70.3387 1342.29 69.825 1342.29 69.3C1342.29 68.6007 1342.01 67.9307 1341.51 67.4361C1341.02 66.9416 1340.35 66.6627 1339.65 66.66Z" fill="#2AD168"/>
<path d="M1435.38 50.5001C1435.9 50.502 1436.42 50.348 1436.86 50.0576C1437.29 49.7672 1437.63 49.3534 1437.84 48.8688C1438.04 48.3841 1438.09 47.8505 1437.99 47.3355C1437.89 46.8205 1437.63 46.3474 1437.26 45.9762C1436.89 45.605 1436.42 45.3524 1435.9 45.2505C1435.39 45.1485 1434.86 45.2019 1434.37 45.4037C1433.89 45.6055 1433.47 45.9467 1433.18 46.384C1432.89 46.8213 1432.74 47.3351 1432.74 47.86C1432.74 48.5594 1433.02 49.2293 1433.52 49.7239C1434.01 50.2184 1434.68 50.4974 1435.38 50.5001Z" fill="#2AD168"/>
<path d="M1411.45 50.5001C1411.97 50.5 1412.49 50.3444 1412.92 50.0527C1413.36 49.7611 1413.7 49.3466 1413.9 48.8618C1414.1 48.377 1414.15 47.8437 1414.05 47.3293C1413.95 46.815 1413.69 46.3429 1413.32 45.9726C1412.95 45.6024 1412.48 45.3509 1411.96 45.2497C1411.45 45.1486 1410.91 45.2025 1410.43 45.4047C1409.94 45.6068 1409.53 45.948 1409.24 46.3851C1408.95 46.8222 1408.8 47.3355 1408.8 47.86C1408.8 48.2076 1408.87 48.5517 1409 48.8726C1409.14 49.1936 1409.33 49.4851 1409.58 49.7303C1409.82 49.9756 1410.11 50.1698 1410.44 50.3019C1410.76 50.434 1411.1 50.5014 1411.45 50.5001Z" fill="#2AD168"/>
<path d="M1387.51 50.5C1388.97 50.5 1390.15 49.318 1390.15 47.86C1390.15 46.402 1388.97 45.22 1387.51 45.22C1386.05 45.22 1384.87 46.402 1384.87 47.86C1384.87 49.318 1386.05 50.5 1387.51 50.5Z" fill="#2AD168"/>
<path d="M1364.59 50.1932C1365.94 49.6387 1366.58 48.0961 1366.03 46.7476C1365.48 45.3991 1363.93 44.7554 1362.58 45.3098C1361.24 45.8642 1360.59 47.4069 1361.15 48.7554C1361.7 50.1039 1363.24 50.7476 1364.59 50.1932Z" fill="#2AD168"/>
<path d="M1339.65 50.5001C1340.17 50.5 1340.69 50.3444 1341.12 50.0527C1341.56 49.7611 1341.9 49.3466 1342.1 48.8618C1342.3 48.377 1342.35 47.8437 1342.25 47.3293C1342.15 46.815 1341.89 46.3429 1341.52 45.9726C1341.15 45.6024 1340.68 45.3509 1340.16 45.2497C1339.65 45.1486 1339.11 45.2025 1338.63 45.4047C1338.15 45.6068 1337.73 45.948 1337.44 46.3851C1337.15 46.8222 1337 47.3355 1337 47.86C1337 48.2076 1337.07 48.5517 1337.2 48.8726C1337.34 49.1936 1337.53 49.4851 1337.78 49.7303C1338.02 49.9756 1338.32 50.1698 1338.64 50.3019C1338.96 50.434 1339.3 50.5014 1339.65 50.5001Z" fill="#2AD168"/>
<path d="M1435.38 29.1C1435.9 29.102 1436.42 28.9483 1436.85 28.6583C1437.29 28.3683 1437.63 27.9551 1437.84 27.4711C1438.04 26.987 1438.09 26.4539 1437.99 25.9392C1437.89 25.4245 1437.64 24.9514 1437.27 24.5798C1436.9 24.2082 1436.42 23.9547 1435.91 23.8517C1435.4 23.7486 1434.86 23.8005 1434.38 24.0008C1433.89 24.2011 1433.48 24.5407 1433.19 24.9767C1432.9 25.4127 1432.74 25.9255 1432.74 26.45C1432.74 27.1511 1433.02 27.8236 1433.51 28.3203C1434.01 28.817 1434.68 29.0974 1435.38 29.1Z" fill="#2AD168"/>
<path d="M1411.45 29.1C1411.97 29.1 1412.49 28.9446 1412.92 28.6534C1413.36 28.3622 1413.7 27.9484 1413.9 27.4642C1414.1 26.9799 1414.15 26.4471 1414.05 25.933C1413.95 25.419 1413.69 24.9468 1413.32 24.5762C1412.95 24.2055 1412.48 23.9532 1411.97 23.8509C1411.45 23.7487 1410.92 23.8012 1410.44 24.0018C1409.95 24.2023 1409.54 24.542 1409.25 24.9778C1408.96 25.4136 1408.8 25.9259 1408.8 26.45C1408.8 26.798 1408.87 27.1426 1409 27.4642C1409.13 27.7857 1409.33 28.0778 1409.58 28.3238C1409.82 28.5699 1410.11 28.7651 1410.44 28.8983C1410.76 29.0315 1411.1 29.1 1411.45 29.1Z" fill="#2AD168"/>
<path d="M1387.51 29.09C1388.97 29.09 1390.15 27.908 1390.15 26.45C1390.15 24.992 1388.97 23.81 1387.51 23.81C1386.05 23.81 1384.87 24.992 1384.87 26.45C1384.87 27.908 1386.05 29.09 1387.51 29.09Z" fill="#2AD168"/>
<path d="M1364.59 28.7915C1365.94 28.237 1366.58 26.6944 1366.03 25.3459C1365.47 23.9974 1363.93 23.3537 1362.58 23.9081C1361.23 24.4626 1360.59 26.0052 1361.15 27.3537C1361.7 28.7022 1363.24 29.3459 1364.59 28.7915Z" fill="#2AD168"/>
<path d="M1339.65 29.1C1340.17 29.1 1340.69 28.9446 1341.12 28.6534C1341.56 28.3622 1341.9 27.9484 1342.1 27.4642C1342.3 26.9799 1342.35 26.4471 1342.25 25.933C1342.15 25.419 1341.89 24.9468 1341.52 24.5762C1341.15 24.2055 1340.68 23.9532 1340.17 23.8509C1339.65 23.7487 1339.12 23.8012 1338.64 24.0018C1338.15 24.2023 1337.74 24.542 1337.45 24.9778C1337.16 25.4136 1337 25.9259 1337 26.45C1337 27.1528 1337.28 27.8269 1337.78 28.3238C1338.27 28.8208 1338.95 29.1 1339.65 29.1Z" fill="#2AD168"/>
<path d="M1435.38 7.66002C1435.9 7.662 1436.42 7.508 1436.86 7.21758C1437.29 6.92716 1437.63 6.51337 1437.84 6.02874C1438.04 5.54411 1438.09 5.01045 1437.99 4.49547C1437.89 3.98049 1437.63 3.50743 1437.26 3.13622C1436.89 2.76501 1436.42 2.51238 1435.9 2.41045C1435.39 2.30852 1434.86 2.36184 1434.37 2.56365C1433.89 2.76546 1433.47 3.10668 1433.18 3.544C1432.89 3.98132 1432.74 4.49504 1432.74 5.02001C1432.74 5.71937 1433.02 6.38937 1433.52 6.8839C1434.01 7.37843 1434.68 7.65739 1435.38 7.66002Z" fill="#2AD168"/>
<path d="M1411.45 7.66002C1411.97 7.66002 1412.49 7.50433 1412.92 7.2127C1413.36 6.92107 1413.7 6.50665 1413.9 6.02184C1414.1 5.53703 1414.15 5.00369 1414.05 4.48937C1413.95 3.97505 1413.69 3.50289 1413.32 3.13268C1412.95 2.76247 1412.48 2.51084 1411.96 2.40972C1411.45 2.3086 1410.91 2.36252 1410.43 2.56463C1409.94 2.76673 1409.53 3.10793 1409.24 3.54503C1408.95 3.98214 1408.8 4.49547 1408.8 5.02001C1408.8 5.36754 1408.87 5.71169 1409 6.03264C1409.14 6.3536 1409.33 6.64503 1409.58 6.89031C1409.82 7.13559 1410.11 7.32988 1410.44 7.46197C1410.76 7.59405 1411.1 7.66134 1411.45 7.66002Z" fill="#2AD168"/>
<path d="M1387.51 7.69C1388.97 7.69 1390.15 6.50803 1390.15 5.05C1390.15 3.59197 1388.97 2.41 1387.51 2.41C1386.05 2.41 1384.87 3.59197 1384.87 5.05C1384.87 6.50803 1386.05 7.69 1387.51 7.69Z" fill="#2AD168"/>
<path d="M1364.59 7.38913C1365.94 6.83469 1366.59 5.29204 1366.03 3.94353C1365.48 2.59503 1363.93 1.95131 1362.59 2.50574C1361.24 3.06018 1360.59 4.60283 1361.15 5.95134C1361.7 7.29984 1363.25 7.94356 1364.59 7.38913Z" fill="#2AD168"/>
<path d="M1339.65 7.66002C1340.17 7.66002 1340.69 7.50433 1341.12 7.2127C1341.56 6.92107 1341.9 6.50665 1342.1 6.02184C1342.3 5.53703 1342.35 5.00369 1342.25 4.48937C1342.15 3.97505 1341.89 3.50289 1341.52 3.13268C1341.15 2.76247 1340.68 2.51084 1340.16 2.40972C1339.65 2.3086 1339.11 2.36252 1338.63 2.56463C1338.15 2.76673 1337.73 3.10793 1337.44 3.54503C1337.15 3.98214 1337 4.49547 1337 5.02001C1337 5.36754 1337.07 5.71169 1337.2 6.03264C1337.34 6.3536 1337.53 6.64503 1337.78 6.89031C1338.02 7.13559 1338.32 7.32988 1338.64 7.46197C1338.96 7.59405 1339.3 7.66134 1339.65 7.66002Z" fill="#2AD168"/>
</g>
<mask id="mask0_29_5" style="mask-type:alpha" maskUnits="userSpaceOnUse" x="-106" y="-121" width="279" height="279">
<circle cx="33.5" cy="18.5" r="137.576" fill="#C4C4C4" stroke="#F8BB54" stroke-width="3.84828"/>
</mask>
<g mask="url(#mask0_29_5)">
<path d="M-187.071 -1.71299C-187.071 -1.71299 -77.9613 -19.3688 -49.8965 -87.5184C-23.1815 -152.519 87.5591 -167.87 87.5591 -167.87" stroke="#F59E0B" stroke-width="4.32558" stroke-miterlimit="10"/>
<path d="M-187.071 18.5295C-187.071 18.5295 -63.2258 -0.981865 -31.3928 -77.7909C-1.13477 -151.001 124.454 -167.87 124.454 -167.87" stroke="#F59E0B" stroke-width="4.32558" stroke-miterlimit="10"/>
<path d="M-187.071 38.828C-187.071 38.828 -48.5467 17.461 -12.9454 -68.0635C20.9683 -149.539 161.405 -167.87 161.405 -167.87" stroke="#F59E0B" stroke-width="4.32558" stroke-miterlimit="10"/>
<path d="M-187.071 59.0704C-187.071 59.0704 -33.8113 35.7915 5.55823 -58.3356C43.0154 -148.021 198.356 -167.87 198.356 -167.87" stroke="#F59E0B" stroke-width="4.32558" stroke-miterlimit="10"/>
<path d="M-187.071 79.3129C-187.071 79.3129 -19.0757 54.1785 24.0054 -48.6641C65.0621 -146.503 235.307 -167.87 235.307 -167.87" stroke="#F59E0B" stroke-width="4.32558" stroke-miterlimit="10"/>
<path d="M-187.071 99.6119C-187.071 99.6119 -4.39684 72.6219 42.5091 -38.8806C87.1093 -145.041 272.202 -167.87 272.202 -167.87" stroke="#F59E0B" stroke-width="4.32558" stroke-miterlimit="10"/>
<path d="M-187.071 119.853C-187.071 119.853 10.3389 91.0088 60.9568 -29.1527C109.156 -143.523 309.153 -167.87 309.153 -167.87" stroke="#F59E0B" stroke-width="4.32558" stroke-miterlimit="10"/>
<path d="M-187.071 140.152C-187.071 140.152 25.0741 109.395 79.4604 -19.4253C131.203 -142.005 346.104 -167.87 346.104 -167.87" stroke="#F59E0B" stroke-width="4.32558" stroke-miterlimit="10"/>
<path d="M-187.071 160.396C-187.071 160.396 39.7534 127.783 97.9076 -9.69737C153.25 -140.542 383.054 -167.87 383.054 -167.87" stroke="#F59E0B" stroke-width="4.32558" stroke-miterlimit="10"/>
<path d="M-187.071 180.636C-187.071 180.636 54.4887 146.17 116.411 -0.0263447C175.297 -139.024 420.005 -167.87 420.005 -167.87" stroke="#F59E0B" stroke-width="4.32558" stroke-miterlimit="10"/>
<path d="M-187.071 200.935C-187.071 200.935 69.2243 164.557 134.915 9.75758C197.343 -137.506 456.901 -167.87 456.901 -167.87" stroke="#F59E0B" stroke-width="4.32558" stroke-miterlimit="10"/>
<path d="M-187.071 221.179C-187.071 221.179 83.9033 182.943 153.362 19.429C219.391 -136.044 493.852 -167.87 493.852 -167.87" stroke="#F59E0B" stroke-width="4.32558" stroke-miterlimit="10"/>
<path d="M-187.071 241.423C-187.071 241.423 98.639 201.33 171.866 29.1565C241.437 -134.526 530.803 -167.87 530.803 -167.87" stroke="#F59E0B" stroke-width="4.32558" stroke-miterlimit="10"/>
<path d="M-187.071 261.722C-187.071 261.722 113.374 219.772 190.313 38.8844C263.484 -133.008 567.753 -167.87 567.753 -167.87" stroke="#F59E0B" stroke-width="4.32558" stroke-miterlimit="10"/>
<path d="M-187.071 281.962C-187.071 281.962 128.053 238.104 208.817 48.6119C285.531 -131.546 604.65 -167.87 604.65 -167.87" stroke="#F59E0B" stroke-width="4.32558" stroke-miterlimit="10"/>
</g>
<mask id="mask1_29_5" style="mask-type:alpha" maskUnits="userSpaceOnUse" x="1250" y="884" width="279" height="279">
<circle cx="1389.5" cy="1023.5" r="137.576" fill="#C4C4C4" stroke="#F8BB54" stroke-width="3.84828"/>
</mask>
<g mask="url(#mask1_29_5)">
<path d="M1168.93 942.504C1168.93 942.504 1233.89 930.47 1250.65 888.355C1266.68 847.982 1332.71 837.13 1332.71 837.13" stroke="#EF5944" stroke-width="4.32558" stroke-miterlimit="10"/>
<path d="M1168.93 962.746C1168.93 962.746 1248.62 948.857 1269.15 898.026C1288.72 849.5 1369.66 837.13 1369.66 837.13" stroke="#EF5944" stroke-width="4.32558" stroke-miterlimit="10"/>
<path d="M1168.93 983.045C1168.93 983.045 1263.3 967.244 1287.6 907.81C1310.77 850.963 1406.61 837.13 1406.61 837.13" stroke="#EF5944" stroke-width="4.32558" stroke-miterlimit="10"/>
<path d="M1168.93 1003.29C1168.93 1003.29 1278.04 985.631 1306.1 917.482C1332.82 852.481 1443.56 837.13 1443.56 837.13" stroke="#EF5944" stroke-width="4.32558" stroke-miterlimit="10"/>
<path d="M1168.93 1023.53C1168.93 1023.53 1292.77 1004.02 1324.61 927.209C1354.87 853.999 1480.45 837.13 1480.45 837.13" stroke="#EF5944" stroke-width="4.32558" stroke-miterlimit="10"/>
<path d="M1168.93 1043.83C1168.93 1043.83 1307.45 1022.46 1343.05 936.937C1376.97 855.461 1517.4 837.13 1517.4 837.13" stroke="#EF5944" stroke-width="4.32558" stroke-miterlimit="10"/>
<path d="M1168.93 1064.07C1168.93 1064.07 1322.19 1040.79 1361.56 946.664C1399.02 856.979 1554.36 837.13 1554.36 837.13" stroke="#EF5944" stroke-width="4.32558" stroke-miterlimit="10"/>
<path d="M1168.93 1084.31C1168.93 1084.31 1336.92 1059.18 1380.01 956.336C1421.06 858.497 1591.31 837.13 1591.31 837.13" stroke="#EF5944" stroke-width="4.32558" stroke-miterlimit="10"/>
<path d="M1168.93 1104.61C1168.93 1104.61 1351.6 1077.62 1398.51 966.119C1443.11 859.959 1628.2 837.13 1628.2 837.13" stroke="#EF5944" stroke-width="4.32558" stroke-miterlimit="10"/>
<path d="M1168.93 1124.85C1168.93 1124.85 1366.34 1096.01 1416.96 975.847C1465.16 861.477 1665.15 837.13 1665.15 837.13" stroke="#EF5944" stroke-width="4.32558" stroke-miterlimit="10"/>
<path d="M1168.93 1145.15C1168.93 1145.15 1381.07 1114.4 1435.46 985.575C1487.2 862.995 1702.1 837.13 1702.1 837.13" stroke="#EF5944" stroke-width="4.32558" stroke-miterlimit="10"/>
<path d="M1168.93 1165.4C1168.93 1165.4 1395.75 1132.78 1453.91 995.303C1509.25 864.458 1739.05 837.13 1739.05 837.13" stroke="#EF5944" stroke-width="4.32558" stroke-miterlimit="10"/>
<path d="M1168.93 1185.64C1168.93 1185.64 1410.49 1151.17 1472.41 1004.97C1531.3 865.976 1776 837.13 1776 837.13" stroke="#EF5944" stroke-width="4.32558" stroke-miterlimit="10"/>
<path d="M1168.93 1205.93C1168.93 1205.93 1425.22 1169.56 1490.91 1014.76C1553.34 867.494 1812.9 837.13 1812.9 837.13" stroke="#EF5944" stroke-width="4.32558" stroke-miterlimit="10"/>
<path d="M1168.93 1226.18C1168.93 1226.18 1439.9 1187.94 1509.36 1024.43C1575.39 868.956 1849.85 837.13 1849.85 837.13" stroke="#EF5944" stroke-width="4.32558" stroke-miterlimit="10"/>
<path d="M1168.93 1246.42C1168.93 1246.42 1454.64 1206.33 1527.87 1034.16C1597.44 870.474 1886.8 837.13 1886.8 837.13" stroke="#EF5944" stroke-width="4.32558" stroke-miterlimit="10"/>
<path d="M1168.93 1266.72C1168.93 1266.72 1469.37 1224.77 1546.31 1043.88C1619.48 871.992 1923.75 837.13 1923.75 837.13" stroke="#EF5944" stroke-width="4.32558" stroke-miterlimit="10"/>
<path d="M1168.93 1286.96C1168.93 1286.96 1484.05 1243.1 1564.82 1053.61C1641.53 873.454 1960.65 837.13 1960.65 837.13" stroke="#EF5944" stroke-width="4.32558" stroke-miterlimit="10"/>
</g>
<defs>
<clipPath id="clip0_29_5">
<rect width="148.89" height="90.91" fill="white" transform="translate(-40 938)"/>
</clipPath>
<clipPath id="clip1_29_5">
<rect width="148.89" height="90.91" fill="white" transform="translate(1337 -19)"/>
</clipPath>
</defs>
</svg>
