<svg width="1068" height="1024" viewBox="0 0 1068 1024" fill="none" xmlns="http://www.w3.org/2000/svg">
<line x1="4" y1="4.37114e-08" x2="3.99996" y2="1024" stroke="#292B33" stroke-width="2"/>
<line x1="322" y1="4.37114e-08" x2="322" y2="1024" stroke="#292B33" stroke-width="2"/>
<line x1="770" y1="4.37114e-08" x2="770" y2="1024" stroke="#292B33" stroke-width="2"/>
<line x1="1064" y1="4.37114e-08" x2="1064" y2="1024" stroke="#292B33" stroke-width="2"/>
<rect y="40" width="8" height="32" rx="4" fill="#292B33"/>
<rect x="318" y="587" width="8" height="32" rx="4" fill="#292B33"/>
<rect x="766" y="239" width="8" height="32" rx="4" fill="#292B33"/>
<rect x="1060" y="713" width="8" height="32" rx="4" fill="#292B33"/>
<circle cx="546" cy="514" r="409" stroke="#292B33" stroke-width="2"/>
<path d="M225.078 267C225.078 270.861 221.931 274 218.039 274C214.147 274 211 270.861 211 267C211 263.139 214.147 260 218.039 260C221.931 260 225.078 263.139 225.078 267Z" fill="#191A1E" stroke="#292B33" stroke-width="2"/>
<path d="M955.078 437C955.078 440.861 951.931 444 948.039 444C944.147 444 941 440.861 941 437C941 433.139 944.147 430 948.039 430C951.931 430 955.078 433.139 955.078 437Z" fill="#191A1E" stroke="#292B33" stroke-width="2"/>
<path d="M586.078 917C586.078 920.861 582.931 924 579.039 924C575.147 924 572 920.861 572 917C572 913.139 575.147 910 579.039 910C582.931 910 586.078 913.139 586.078 917Z" fill="#191A1E" stroke="#292B33" stroke-width="2"/>
</svg>
