<svg width="32" height="32" viewBox="0 0 32 32" fill="none" xmlns="http://www.w3.org/2000/svg">
<path d="M19.5034 7.05185H11.9964C9.15039 7.05185 6.84326 9.35898 6.84326 12.205V20.4803C6.84326 23.3263 9.15039 25.6334 11.9964 25.6334H19.5034C22.3494 25.6334 24.6565 23.3263 24.6565 20.4803V12.205C24.6565 9.35898 22.3494 7.05185 19.5034 7.05185Z" stroke="#F1EFFB" stroke-width="1.46812" stroke-linecap="round"/>
<path d="M15.7499 20.8816C18.258 20.8816 20.2913 18.8483 20.2913 16.3402C20.2913 13.832 18.258 11.7988 15.7499 11.7988C13.2418 11.7988 11.2085 13.832 11.2085 16.3402C11.2085 18.8483 13.2418 20.8816 15.7499 20.8816Z" stroke="#F1EFFB" stroke-width="1.46812" stroke-linecap="round"/>
<path d="M21.187 10.9864C21.5438 10.9864 21.833 10.6972 21.833 10.3404C21.833 9.98367 21.5438 9.69446 21.187 9.69446C20.8302 9.69446 20.541 9.98367 20.541 10.3404C20.541 10.6972 20.8302 10.9864 21.187 10.9864Z" stroke="#F1EFFB" stroke-width="1.46812"/>
</svg>
